<svg height="512" viewBox="0 0 128 128" width="512" xmlns="http://www.w3.org/2000/svg" xmlns:xlink="http://www.w3.org/1999/xlink"><linearGradient id="linear-gradient" gradientUnits="userSpaceOnUse" x1="106.142" x2="9.67" y1="113.069" y2="16.597"><stop offset="0" stop-color="#4db6ac"/><stop offset="1" stop-color="#ba68c8"/></linearGradient><path d="m30.1 57.233a1.747 1.747 0 0 0 0 1.752 12.167 12.167 0 0 0 19.625 2.038 12.168 12.168 0 0 0 19.626-2.037 1.749 1.749 0 0 0 0-1.753 12.184 12.184 0 0 0 -4.451-4.445 19.763 19.763 0 0 0 4.689-12.788v-.307a1.75 1.75 0 0 0 -1.75-1.75 19.648 19.648 0 0 0 -9.9 2.658 16.319 16.319 0 0 0 -7.339-9.121 1.747 1.747 0 0 0 -1.753 0 16.32 16.32 0 0 0 -7.333 9.12 19.647 19.647 0 0 0 -9.9-2.658 1.75 1.75 0 0 0 -1.75 1.75v.308a19.763 19.763 0 0 0 4.69 12.79 12.18 12.18 0 0 0 -4.454 4.443zm35.641.875a8.7 8.7 0 0 1 -12.541 1.448 19.981 19.981 0 0 0 9.1-4.182 8.689 8.689 0 0 1 3.444 2.734zm-7.066-13.857a16.146 16.146 0 0 1 7.342-2.71 16.422 16.422 0 0 1 -10.562 13.777 16.352 16.352 0 0 0 3.22-11.067zm-8.947-9.185a12.881 12.881 0 0 1 0 20.966 12.739 12.739 0 0 1 0-20.966zm-8.947 9.185a16.36 16.36 0 0 0 3.219 11.067 16.54 16.54 0 0 1 -10.56-13.777 16.144 16.144 0 0 1 7.341 2.71zm-3.623 11.123a19.98 19.98 0 0 0 9.1 4.182 8.7 8.7 0 0 1 -12.544-1.447 8.687 8.687 0 0 1 3.444-2.735zm80.917-38.846a9.526 9.526 0 0 0 -6.857 3.355l-15.461 17.8-6.945 8v-27.683a5.756 5.756 0 0 0 -5.75-5.75h-14.485a8.147 8.147 0 0 0 -6.4-6.43 7.43 7.43 0 0 0 -7.24-5.82h-10.417a7.43 7.43 0 0 0 -7.244 5.82 8.147 8.147 0 0 0 -6.4 6.43h-14.476a5.756 5.756 0 0 0 -5.755 5.75v9.691a1.75 1.75 0 1 0 3.5 0v-9.691a2.253 2.253 0 0 1 2.25-2.25h66.667a2.253 2.253 0 0 1 2.25 2.25v29.355a9.8 9.8 0 0 0 -7.248 8.512c-.185 2.023.393 3.978-.023 6.005a8.41 8.41 0 0 1 -1.2 3.015c-.554.813-1.474 1.434-1.79 2.4a1.762 1.762 0 0 0 1.211 2.213 17.832 17.832 0 0 0 9.05 0v11.083h-71.167v-38.163a1.75 1.75 0 0 0 -3.5 0v38.163h-3.083a7.583 7.583 0 1 0 0 15.167h9.038l-9.3 29.981a1.75 1.75 0 0 0 1.67 2.269h13.981a1.75 1.75 0 0 0 1.671-1.231l9.626-31.019h6.928v20.492a1.75 1.75 0 0 0 1.75 1.75h13.981a1.75 1.75 0 0 0 1.75-1.75v-20.492h6.551l4.127 13.3a1.75 1.75 0 0 0 3.343-1.037l-3.805-12.263h10.316l8.922 28.75h-10.317l-2.97-9.571a1.75 1.75 0 0 0 -3.343 1.037l3.353 10.8a1.75 1.75 0 0 0 1.671 1.234h13.981a1.75 1.75 0 0 0 1.671-2.269l-9.3-29.981h9.043a7.583 7.583 0 0 0 0-15.167h-3.088v-12.419a17.61 17.61 0 0 0 4.367-3.1l1.461-1.422a9.64 9.64 0 0 0 2.84-6.762l9.352-8.122 17.793-15.453a9.519 9.519 0 0 0 -6.55-16.779zm-83.583-4.278a4.634 4.634 0 0 1 4.361-3.083 1.75 1.75 0 0 0 1.75-1.75 3.921 3.921 0 0 1 3.917-3.917h10.417a3.921 3.921 0 0 1 3.917 3.917 1.75 1.75 0 0 0 1.75 1.75 4.634 4.634 0 0 1 4.361 3.083zm-12.83 112.25h-10.316l8.921-28.75h10.316zm33.5-10.008h-10.486v-18.742h10.481zm40.816-26.325a4.088 4.088 0 0 1 -4.078 4.083h-84.338a4.083 4.083 0 1 1 0-8.167h84.338a4.088 4.088 0 0 1 4.078 4.084zm-11.391-22.108a14.5 14.5 0 0 1 -4.621.5 12.411 12.411 0 0 0 1.734-5.234 8.04 8.04 0 0 1 .8.695 8.141 8.141 0 0 1 2.191 4.008c-.036.009-.07.022-.104.031zm7.6-4.907a21.919 21.919 0 0 1 -4.241 3.5 11.5 11.5 0 0 0 -6.395-7.462 6.2 6.2 0 0 1 3.842-6.165 6.366 6.366 0 0 1 7.38 2.035 6.289 6.289 0 0 1 -.591 8.092zm4.52-8.23a9.738 9.738 0 0 0 -5.116-5.1l5.577-6.422 5.951 5.95zm25.656-22.282-.02.017-16.575 14.392-3.15-3.149-3.15-3.149 14.408-16.591a6.019 6.019 0 1 1 8.481 8.481zm-111.718 5.421v-2.009a1.75 1.75 0 0 1 3.5 0v2.009a1.75 1.75 0 0 1 -3.5 0z" fill="url(#linear-gradient)"/></svg>