<svg height="512" viewBox="0 0 128 128" width="512" xmlns="http://www.w3.org/2000/svg" xmlns:xlink="http://www.w3.org/1999/xlink"><linearGradient id="linear-gradient" gradientUnits="userSpaceOnUse" x1="112.604" x2="15.372" y1="105.986" y2="8.754"><stop offset="0" stop-color="#4db6ac"/><stop offset="1" stop-color="#ba68c8"/></linearGradient><path d="m45.918 19.716a1.751 1.751 0 0 1 -.532-2.417q.283-.442.575-.88a1.75 1.75 0 0 1 2.911 1.942q-.272.409-.537.823a1.751 1.751 0 0 1 -2.417.532zm82.07 5.146v1.054a63.8 63.8 0 0 1 -18.807 45.272 37.643 37.643 0 0 1 18.571 16.1 1.751 1.751 0 0 1 0 1.753 37.935 37.935 0 0 1 -23.313 17.682 1.75 1.75 0 1 1 -.863-3.392 34.417 34.417 0 0 0 20.624-15.165 34.15 34.15 0 0 0 -17.823-14.3 63.961 63.961 0 0 1 -14.657 9.728 63.1 63.1 0 0 1 -24.568 6.247 34.317 34.317 0 0 0 27.963 14.55 1.75 1.75 0 0 1 0 3.5 37.538 37.538 0 0 1 -14.959-3.132 30.938 30.938 0 0 1 -15.289 23.1 1.774 1.774 0 0 1 -1.753 0 30.933 30.933 0 0 1 -15.289-23.1 37.581 37.581 0 0 1 -47.601-15.717 1.749 1.749 0 0 1 0-1.753 37.639 37.639 0 0 1 18.576-16.101 63.8 63.8 0 0 1 -18.812-45.272v-1.054a1.75 1.75 0 0 1 1.75-1.75 63.344 63.344 0 0 1 36.623 11.528 51.068 51.068 0 0 1 3.346-10.486 1.75 1.75 0 1 1 3.2 1.417 47.526 47.526 0 0 0 -3.567 12.344 57.551 57.551 0 0 0 -.169 12.857 48.405 48.405 0 0 0 22.817 35.328 47.088 47.088 0 0 0 9.617-7.682 48.063 48.063 0 0 0 -9.617-74.539 48.3 48.3 0 0 0 -10.406 8.506 1.75 1.75 0 0 1 -2.57-2.376 51.8 51.8 0 0 1 12.1-9.678 1.751 1.751 0 0 1 1.753 0 51.843 51.843 0 0 1 24.735 34.32 63.343 63.343 0 0 1 36.64-11.539 1.75 1.75 0 0 1 1.748 1.75zm-86.664 57.145a60.423 60.423 0 0 0 16.386 4.073 51.792 51.792 0 0 1 -19.974-47.58 59.859 59.859 0 0 0 -34.243-11.863 60.6 60.6 0 0 0 37.831 55.37zm-8.461 22.382a34.319 34.319 0 0 0 27.962-14.55 64.012 64.012 0 0 1 -39.225-15.976 34.149 34.149 0 0 0 -17.822 14.3 34.326 34.326 0 0 0 29.085 16.226zm31.125-12.942a38.029 38.029 0 0 1 -12.824 11.693 27.451 27.451 0 0 0 12.824 21.16 27.452 27.452 0 0 0 12.824-21.16 38.024 38.024 0 0 1 -12.824-11.693zm60.5-64.811a59.86 59.86 0 0 0 -34.247 11.864 51.525 51.525 0 0 1 -3.707 26.646 52.008 52.008 0 0 1 -16.267 20.934 60.48 60.48 0 0 0 54.217-59.443z" fill="url(#linear-gradient)"/></svg>