<svg height="512" viewBox="0 0 128 128" width="512" xmlns="http://www.w3.org/2000/svg" xmlns:xlink="http://www.w3.org/1999/xlink"><linearGradient id="a" gradientUnits="userSpaceOnUse" x1="105.239" x2="22.763" y1="110.737" y2="28.261"><stop offset="0" stop-color="#e57373"/><stop offset="1" stop-color="#f9e0a0"/></linearGradient><path d="m74.066 52.163a1.75 1.75 0 0 1 -2.3-.92 81.454 81.454 0 0 0 -9.166-15.443 1.75 1.75 0 1 1 2.816-2.079 85.008 85.008 0 0 1 9.566 16.141 1.75 1.75 0 0 1 -.916 2.301zm46.89 13.268a1.751 1.751 0 0 0 -2.338.811c-.425.876-.873 1.767-1.344 2.665a1.75 1.75 0 1 0 3.1 1.625c.488-.931.952-1.855 1.393-2.763a1.751 1.751 0 0 0 -.811-2.338zm6.967-13.2c-.036.126-.923 3.15-2.673 7.588a1.75 1.75 0 1 1 -3.256-1.284c.9-2.287 1.571-4.2 2-5.494a110.784 110.784 0 0 0 -18.444-2.159c.167 8.666-.9 18.3-5.111 25.6-.735 1.274-1.511 2.488-2.313 3.647a40.436 40.436 0 0 1 8.83 3.585 51.27 51.27 0 0 0 5.625-6.93 1.75 1.75 0 0 1 2.891 1.974 56.207 56.207 0 0 1 -5.414 6.793 53.27 53.27 0 0 1 9.863 8.12 1.751 1.751 0 0 1 0 2.352c-.542.6-13.469 14.635-29.8 14.635-10.843 0-20.808-2.987-26.125-7.721-5.318 4.733-15.283 7.721-26.125 7.721a30.334 30.334 0 0 1 -6.621-.753 1.75 1.75 0 0 1 .766-3.415 26.864 26.864 0 0 0 5.855.668c10.853 0 20.593-3.081 24.814-7.85a1.807 1.807 0 0 1 2.621 0c4.221 4.769 13.961 7.85 24.815 7.85 12.134 0 22.621-9.025 26.036-12.311-3.415-3.285-13.9-12.311-26.036-12.311-10.854 0-20.594 3.081-24.815 7.85a1.807 1.807 0 0 1 -2.621 0c-4.221-4.769-13.962-7.85-24.814-7.85-12.135 0-22.625 9.028-26.038 12.313a52.348 52.348 0 0 0 10.939 8.072 1.75 1.75 0 0 1 -1.671 3.076 54.014 54.014 0 0 1 -13.022-9.977 1.751 1.751 0 0 1 0-2.352 53.288 53.288 0 0 1 9.862-8.12c-11.655-12.371-17.606-32.431-17.864-33.316a1.749 1.749 0 0 1 1.264-2.19 110.163 110.163 0 0 1 21.242-2.664 109.533 109.533 0 0 1 2.563-18.139 1.749 1.749 0 0 1 2.19-1.264 109.605 109.605 0 0 1 21.052 9.049 115.286 115.286 0 0 1 14.348-19.14 1.8 1.8 0 0 1 2.528 0 115.236 115.236 0 0 1 14.348 19.14 109.639 109.639 0 0 1 21.051-9.049 1.749 1.749 0 0 1 2.19 1.264 109.411 109.411 0 0 1 2.563 18.139 110.166 110.166 0 0 1 21.243 2.664 1.749 1.749 0 0 1 1.264 2.19zm-106.895 31.489a40.415 40.415 0 0 1 8.847-3.594c-.8-1.158-1.578-2.372-2.315-3.647-4.213-7.3-5.277-16.93-5.111-25.6a110.524 110.524 0 0 0 -18.441 2.162c1.763 5.279 7.571 21.013 17.02 30.679zm16.847-4.687c1.8 0 3.562.09 5.291.248a42.094 42.094 0 0 1 -3.135-16.993c0-7.468 2.907-15.268 6.639-22.216a109.087 109.087 0 0 0 -18.523-8.167c-1.349 6.614-5.234 29.523 2.445 42.824a48.1 48.1 0 0 0 3.03 4.621 29.482 29.482 0 0 1 4.253-.317zm42.8.783c2.507-4.565 3.793-10.446 3.793-17.528.001-16.348-15.824-35.367-20.468-40.595-4.642 5.23-20.469 24.262-20.469 40.6 0 7.082 1.286 12.963 3.793 17.528 6.97 1.179 12.959 3.625 16.676 6.933 3.716-3.308 9.706-5.754 16.676-6.938zm19.176-47.91a109.223 109.223 0 0 0 -18.521 8.166c3.732 6.948 6.639 14.748 6.639 22.216a42.1 42.1 0 0 1 -3.135 16.993c1.729-.158 3.5-.248 5.291-.248a29.482 29.482 0 0 1 4.253.317 48.085 48.085 0 0 0 3.03-4.621c7.679-13.3 3.792-36.208 2.444-42.823z" fill="url(#a)"/></svg>