<svg height="512" viewBox="0 0 128 128" width="512" xmlns="http://www.w3.org/2000/svg" xmlns:xlink="http://www.w3.org/1999/xlink"><linearGradient id="linear-gradient" gradientUnits="userSpaceOnUse" x1="105.553" x2="34.04" y1="88.682" y2="17.168"><stop offset="0" stop-color="#4db6ac"/><stop offset="1" stop-color="#ba68c8"/></linearGradient><path d="m77.162 114.441a1.75 1.75 0 0 1 .145 2.471c-.787.887-1.924 1.723-3.026.689a1.749 1.749 0 0 1 -.083-2.473q.25-.267.494-.541a1.749 1.749 0 0 1 2.47-.146zm9.048-35.1c-18.381-3.748-24.389-17.493-26.31-25.062-11.215 17.3-34.654 19.856-41.265 20.233v.188a29.913 29.913 0 0 0 .442 5.061c.072.414.146.828.236 1.238l2.142 9.811c0 .01.008.018.01.028l2.271 10.415q.267 1.228.642 2.436l.01.033c.251.809.537 1.608.856 2.391a29.559 29.559 0 0 0 44.132 13.168 1.75 1.75 0 1 1 1.986 2.882 33.045 33.045 0 0 1 -49.184-14.341 50.253 50.253 0 0 1 -11.67-15.086 11.44 11.44 0 0 1 -5.075-15.67 54.64 54.64 0 0 1 -.7-8.568 53.082 53.082 0 0 1 11.057-32.576 1.75 1.75 0 0 1 2.758 2.155 49.563 49.563 0 0 0 -10.312 30.423c0 1.626.082 3.272.245 4.925a11.447 11.447 0 0 1 7.53-2.428 80.19 80.19 0 0 1 11.78-13.141 75.852 75.852 0 0 1 26.046-15.726 73.824 73.824 0 0 1 7.238-2.094c2.527-.594 5.1-.974 7.585-1.742 3.936-1.217 9.256-3.857 9.476-8.621a42.048 42.048 0 0 0 -25.536-8.643 42.693 42.693 0 0 0 -29.367 11.893 1.75 1.75 0 1 1 -2.4-2.543 46.174 46.174 0 0 1 31.767-12.85 45.58 45.58 0 0 1 28.42 9.947c12.18 9.585 19.452 24.923 19.452 41.023a54.673 54.673 0 0 1 -.7 8.568 11.44 11.44 0 0 1 -5.072 15.669 50.23 50.23 0 0 1 -11.664 15.089 32.9 32.9 0 0 1 -1.98 3.957 1.75 1.75 0 1 1 -3.013-1.783 32.285 32.285 0 0 0 3.646-9.712q2.102-9.646 4.211-19.288c.12-.551.222-1.105.31-1.66zm.535 14.205-1.569 7.181a46.9 46.9 0 0 0 4.9-6.807 11.515 11.515 0 0 1 -3.331-.374zm10.879-11.095a7.968 7.968 0 0 0 -7.544-7.94 34.329 34.329 0 0 1 -.756 7.23l-1.824 8.366a7.944 7.944 0 0 0 10.128-7.656zm-16.438-50.258c-2.921 9.337-14.77 9.84-22.548 12.035-.155.044-.31.086-.465.131a88.256 88.256 0 0 0 18.404 13.865c7.581 4.209 11.339 8.271 13.155 10.938.387.619.783 1.222 1.108 1.878a11.508 11.508 0 0 1 5.887 2.381c.162-1.651.244-3.3.244-4.924a49.121 49.121 0 0 0 -15.785-36.304zm-63.474 57.914c-1.121-5.129-2.593-10.313-2.585-15.6a7.955 7.955 0 1 0 2.585 15.6zm-2.576 3.812a47.006 47.006 0 0 0 4.9 6.808l-1.569-7.181a11.352 11.352 0 0 1 -2.974.374c-.121-.002-.239.003-.356-.001zm43.459-44.369c-1.315-1.176-2.6-2.385-3.841-3.639-.352-.355-.268-.27-.707-.194a20.37 20.37 0 0 0 -4.436 1.814q-2.2 1-4.318 2.152a75.257 75.257 0 0 0 -8.118 5.123 85.276 85.276 0 0 0 -16.657 16.024c8.509-.856 29.565-4.641 38.077-21.28zm27.952 26.3c.067-1.7.067-3.426 0-5.127-3.425-4.714-8.537-7.553-13.447-10.46a89.258 89.258 0 0 1 -9.88-6.819c1.626 6.681 6.825 18.895 23.327 22.408zm-40.192-2.442a1.75 1.75 0 0 0 -3.388-.618 5.617 5.617 0 0 1 -3.553 1.016 5.85 5.85 0 0 1 -3.484-.96 1.75 1.75 0 0 0 -2.17 2.746 9.06 9.06 0 0 0 5.654 1.714c3.698-.001 6.941-1.822 6.941-3.898zm25.093 2.183a1.75 1.75 0 0 0 -2.172-2.745 5.838 5.838 0 0 1 -3.482.959 5.617 5.617 0 0 1 -3.553-1.016 1.75 1.75 0 0 0 -3.388.618c0 2.076 3.243 3.9 6.94 3.9a9.057 9.057 0 0 0 5.655-1.716zm25.439-63.867a1.751 1.751 0 0 0 -1.617-1.081h-10.809a1.75 1.75 0 0 0 0 3.5h6.584l-7.3 7.3a1.75 1.75 0 0 0 1.237 2.987h10.288a1.75 1.75 0 0 0 0-3.5h-6.062l7.3-7.3a1.749 1.749 0 0 0 .379-1.906zm4.157 18.383a1.75 1.75 0 0 0 1.75 1.75h6.584l-7.3 7.3a1.75 1.75 0 0 0 1.237 2.987h10.285a1.75 1.75 0 0 0 0-3.5h-6.061l7.3-7.3a1.75 1.75 0 0 0 -1.237-2.987h-10.808a1.75 1.75 0 0 0 -1.75 1.75zm22.714-29.017a1.751 1.751 0 0 0 -1.617-1.08h-15.376a1.75 1.75 0 1 0 0 3.5h11.151l-11.645 11.645a1.75 1.75 0 0 0 1.237 2.987h14.632a1.75 1.75 0 0 0 0-3.5h-10.407l11.645-11.642a1.75 1.75 0 0 0 .38-1.91zm-71.158 104.838c8.483 0 9.648-5.093 9.694-5.31a1.75 1.75 0 0 0 -1.038-1.974l-4.125-1.723a5.708 5.708 0 0 0 -4.531.043 5.707 5.707 0 0 0 -4.533-.043l-4.124 1.722a1.751 1.751 0 0 0 -1.038 1.974c.05.218 1.216 5.311 9.695 5.311zm.728-24.6a1.75 1.75 0 0 0 -3.461-.524l-1.01 6.696a4.15 4.15 0 0 0 4.1 4.771h2.794a1.75 1.75 0 0 0 0-3.5h-2.79a.649.649 0 0 1 -.643-.747z" fill="url(#linear-gradient)"/></svg>